<?xml version="1.0" standalone="no"?>
<!DOCTYPE svg PUBLIC "-//W3C//DTD SVG 20010904//EN"
 "http://www.w3.org/TR/2001/REC-SVG-20010904/DTD/svg10.dtd">
<svg version="1.0" xmlns="http://www.w3.org/2000/svg"
 width="512.000000pt" height="512.000000pt" viewBox="0 0 512.000000 512.000000"
 preserveAspectRatio="xMidYMid meet">

<g transform="translate(0.000000,512.000000) scale(0.100000,-0.100000)"
fill="#000000" stroke="none">
<path d="M1272 4269 c-51 -26 -95 -76 -111 -128 -17 -57 -16 -3108 1 -3165 16
-53 84 -121 134 -135 27 -8 428 -11 1273 -11 1232 0 1235 0 1278 21 51 25 96
76 112 128 8 28 11 348 11 1157 l0 1119 -518 518 -517 517 -810 0 c-805 0
-810 0 -853 -21z m1588 -541 c0 -212 4 -368 10 -390 17 -59 69 -120 129 -150
l55 -28 353 0 353 0 0 -1060 0 -1060 -1200 0 -1200 0 0 1520 0 1520 750 0 750
0 0 -352z m464 -356 c-159 -2 -231 1 -240 9 -11 9 -14 59 -14 243 l0 231 240
-240 240 -240 -226 -3z"/>
<path d="M2053 3836 c-193 -63 -291 -258 -222 -443 27 -70 95 -145 164 -181
72 -37 188 -42 267 -12 75 28 150 96 185 168 24 49 28 69 28 142 0 76 -3 93
-33 152 -37 75 -89 124 -168 159 -60 27 -163 34 -221 15z m169 -193 c88 -52
97 -180 17 -248 -84 -70 -224 -18 -245 91 -9 51 21 122 65 151 42 29 119 31
163 6z"/>
<path d="M2007 3105 c-188 -52 -328 -213 -331 -383 -1 -60 1 -65 32 -93 45
-41 102 -41 143 0 19 19 29 40 29 59 0 115 103 210 239 220 36 2 84 -1 106 -7
97 -26 169 -104 182 -195 8 -68 45 -106 101 -106 47 0 96 35 106 76 10 37 -12
140 -41 198 -53 105 -164 192 -292 230 -66 19 -206 20 -274 1z"/>
<path d="M1711 2114 c-59 -50 -46 -140 24 -170 51 -21 1609 -21 1660 0 74 31
86 126 21 178 -19 16 -80 18 -848 18 l-826 0 -31 -26z"/>
<path d="M1733 1600 c-13 -5 -32 -24 -43 -42 -28 -45 -21 -94 20 -130 l30 -28
826 0 826 0 35 35 c32 32 35 40 30 77 -3 26 -15 51 -31 67 l-26 26 -823 2
c-476 1 -831 -2 -844 -7z"/>
</g>
</svg>
